<?xml version="1.0" standalone="no"?>
<!DOCTYPE svg PUBLIC "-//W3C//DTD SVG 20010904//EN"
 "http://www.w3.org/TR/2001/REC-SVG-20010904/DTD/svg10.dtd">
<svg version="1.0" xmlns="http://www.w3.org/2000/svg"
 width="1024.000000pt" height="1024.000000pt" viewBox="0 0 1024.000000 1024.000000"
 preserveAspectRatio="xMidYMid meet">
<metadata>
Created by potrace 1.11, written by Peter Selinger 2001-2013
</metadata>
<g transform="translate(0.000000,1024.000000) scale(0.100000,-0.100000)"
fill="#000000" stroke="none">
<path d="M4888 10235 c-2 -1 -41 -5 -87 -9 -75 -6 -221 -25 -321 -42 -19 -4
-44 -8 -55 -9 -11 -2 -20 -4 -20 -5 0 -1 -9 -3 -20 -4 -11 -2 -51 -11 -90 -20
-38 -10 -81 -20 -95 -22 -14 -3 -52 -14 -85 -25 -33 -11 -67 -22 -75 -24 -8
-2 -28 -8 -45 -15 -16 -6 -31 -11 -32 -11 -5 1 -192 -70 -243 -92 -14 -5 -27
-11 -30 -12 -16 -4 -287 -142 -345 -176 -141 -82 -336 -217 -445 -309 -10 -8
-39 -33 -66 -55 -57 -46 -313 -300 -366 -363 -20 -24 -49 -59 -65 -79 -15 -20
-34 -42 -41 -49 -7 -7 -49 -64 -92 -126 -44 -62 -84 -117 -88 -123 -11 -14
-71 -112 -100 -165 -14 -25 -36 -63 -49 -85 -36 -65 -122 -244 -160 -334 -43
-103 -114 -301 -108 -301 2 0 -4 -20 -15 -45 -11 -25 -17 -45 -15 -45 3 0 0
-11 -5 -25 -5 -14 -12 -36 -14 -48 -3 -12 -8 -33 -11 -47 -3 -14 -8 -36 -11
-50 -2 -14 -7 -32 -10 -40 -3 -8 -12 -51 -21 -95 -20 -108 -21 -113 -28 -170
-4 -27 -9 -63 -11 -80 -19 -147 -26 -577 -12 -710 4 -33 9 -87 13 -120 5 -56
11 -93 15 -105 1 -3 2 -9 1 -13 -2 -9 28 -159 54 -282 16 -73 46 -177 72 -255
8 -25 16 -50 17 -57 1 -7 5 -16 9 -19 4 -4 7 -14 7 -22 0 -8 6 -28 14 -45 7
-18 24 -59 37 -92 30 -80 138 -314 149 -325 3 -3 12 -18 20 -35 65 -132 250
-410 345 -522 6 -6 21 -26 35 -44 14 -18 30 -37 35 -43 63 -65 278 -342 365
-471 19 -27 37 -52 42 -53 4 -2 8 -8 8 -13 0 -5 27 -50 60 -99 33 -49 60 -94
60 -100 0 -5 3 -10 8 -10 4 0 19 -21 32 -47 14 -27 27 -50 31 -53 4 -4 49 -81
119 -205 47 -82 187 -369 220 -450 4 -11 17 -41 29 -67 12 -26 21 -50 21 -52
0 -3 5 -17 12 -33 6 -15 12 -30 13 -33 0 -3 16 -49 34 -102 23 -70 37 -97 49
-97 17 -1 39 -1 67 -1 8 0 22 0 30 0 8 0 22 0 30 0 8 0 22 0 30 0 8 0 22 0 30
0 8 0 22 0 30 0 8 0 22 0 30 0 8 0 22 0 30 0 8 0 22 0 30 0 8 0 22 0 30 0 8 0
22 0 30 0 8 0 22 0 30 0 8 0 22 0 30 0 8 0 22 0 30 0 8 0 22 0 30 0 8 0 22 0
30 0 8 0 22 0 30 0 8 0 22 0 30 0 8 0 22 0 30 0 8 0 22 0 30 0 8 0 22 0 30 0
8 0 22 0 30 0 8 0 22 0 30 0 8 0 22 0 30 0 8 0 22 0 30 0 8 0 22 0 30 0 8 0
21 0 28 0 6 1 31 -1 54 -2 l42 -3 -4 75 c-2 41 -5 76 -6 78 -2 3 -4 12 -13 62
-12 62 -94 299 -156 450 -28 69 -54 135 -57 147 -3 13 -9 23 -12 23 -4 0 -8 6
-8 13 0 21 -200 431 -252 518 -11 19 -24 41 -28 49 -4 8 -26 48 -50 88 -24 41
-43 76 -43 78 0 3 -8 17 -19 32 -10 15 -52 79 -92 142 -41 63 -77 117 -81 118
-5 2 -8 9 -8 16 0 7 -8 21 -18 32 -10 10 -42 55 -72 99 -30 44 -57 82 -60 85
-3 3 -36 46 -74 95 -38 50 -75 95 -83 101 -7 6 -13 16 -13 22 0 6 -3 12 -7 14
-14 5 -223 253 -253 298 -8 13 -24 35 -35 49 -61 79 -180 280 -212 357 -10 24
-21 44 -25 44 -5 0 -8 8 -8 18 0 10 -4 22 -9 27 -7 9 -70 164 -76 190 -1 6 -5
19 -9 30 -21 54 -63 201 -70 240 -3 17 -10 50 -15 75 -5 25 -12 65 -15 90 -4
25 -9 56 -11 70 -26 149 -27 515 -1 700 13 86 19 124 37 200 10 47 26 110 34
140 9 30 18 63 20 73 6 28 28 91 36 102 3 6 9 23 13 38 4 15 20 55 35 87 16
33 28 60 25 60 -7 0 118 235 127 238 5 2 7 8 3 13 -3 5 0 9 5 9 6 0 11 5 11
12 0 6 11 26 25 44 14 18 25 36 25 39 0 6 107 153 120 165 3 3 27 33 54 66 74
93 253 266 370 359 21 17 43 35 50 40 22 20 212 143 281 182 96 54 303 152
330 157 6 1 15 4 20 7 24 15 279 92 335 102 14 3 36 8 50 11 14 3 36 8 50 10
14 2 36 7 50 10 14 4 45 9 70 12 25 2 61 7 80 9 29 4 263 16 295 16 35 0 235
-12 260 -15 17 -2 53 -7 80 -11 28 -3 61 -8 75 -11 14 -3 36 -8 50 -10 120
-20 366 -90 422 -120 14 -8 32 -14 39 -14 13 0 77 -29 199 -90 70 -35 97 -50
183 -99 61 -35 219 -145 253 -176 6 -5 26 -21 44 -35 100 -76 322 -300 379
-384 8 -12 17 -23 20 -26 25 -22 147 -202 206 -305 66 -114 176 -358 199 -445
4 -14 11 -34 16 -45 8 -17 29 -91 44 -155 4 -16 35 -163 41 -190 1 -8 6 -42
10 -75 4 -32 9 -68 11 -80 4 -16 10 -134 15 -270 1 -27 -12 -264 -17 -290 -2
-16 -6 -46 -9 -65 -3 -19 -7 -46 -9 -60 -2 -14 -7 -43 -11 -65 -3 -22 -8 -48
-11 -57 -3 -10 -8 -30 -10 -45 -3 -16 -16 -66 -30 -113 -14 -47 -27 -93 -29
-104 -2 -10 -9 -23 -14 -30 -5 -6 -10 -15 -10 -21 -9 -81 -156 -382 -273 -559
-63 -96 -161 -226 -170 -226 -4 0 -8 -4 -8 -9 0 -5 -16 -26 -36 -47 -35 -38
-217 -261 -261 -320 -120 -161 -293 -408 -293 -420 0 -8 -55 -89 -62 -92 -5
-2 -8 -7 -8 -12 0 -4 -27 -54 -60 -109 -33 -56 -60 -105 -60 -110 0 -5 -3 -11
-7 -13 -15 -6 -189 -353 -263 -523 -28 -66 -58 -134 -65 -150 -19 -43 -38 -88
-41 -100 -3 -15 -53 -146 -64 -170 -39 -88 -90 -289 -95 -381 -4 -65 -3 -75
10 -70 8 3 15 2 15 -3 0 -5 18 -5 40 -1 22 4 40 5 40 1 0 -7 89 -6 96 2 3 3
18 2 33 -3 16 -4 34 -4 41 0 6 4 27 4 46 0 19 -4 36 -4 39 0 3 4 21 4 40 0 19
-4 37 -4 40 0 3 4 21 4 40 0 19 -4 37 -4 40 0 3 5 18 5 34 0 15 -4 34 -4 41 0
6 4 27 4 46 0 19 -4 36 -4 39 0 3 4 21 4 40 0 19 -4 37 -4 40 0 3 4 21 4 40 0
19 -4 37 -4 40 0 3 5 18 5 34 0 15 -4 34 -4 41 0 7 5 19 6 26 3 10 -4 23 16
24 39 0 4 9 28 20 53 11 25 17 45 15 45 -3 0 6 25 20 55 13 31 24 56 24 58 0
1 4 15 10 30 6 16 11 30 11 32 0 3 13 33 29 67 15 35 38 86 51 113 19 43 63
132 157 315 13 25 28 52 33 60 22 35 175 296 179 305 2 5 8 14 13 20 4 5 52
75 105 155 53 80 102 151 110 158 7 7 13 16 13 20 0 4 11 21 25 37 30 36 32
39 69 90 17 22 38 49 48 60 9 11 41 49 70 85 29 36 61 74 72 85 10 11 49 61
87 110 38 50 75 97 82 105 7 8 26 35 42 60 17 25 32 47 35 50 6 6 3 1 98 160
38 63 76 129 84 145 8 17 19 39 25 50 31 58 64 127 88 185 15 36 33 79 40 95
8 17 15 37 17 45 2 8 5 17 8 20 5 5 54 145 50 145 -1 0 6 16 14 35 8 19 15 40
16 45 2 6 4 15 6 20 6 18 36 140 40 164 3 13 9 32 15 43 5 10 8 18 5 18 -2 0
0 17 5 38 5 20 12 53 15 72 3 19 9 53 14 75 4 22 8 47 9 55 0 8 3 31 6 50 3
19 7 49 9 65 21 137 29 551 14 710 -15 160 -22 218 -28 235 -1 3 -2 9 -1 13 1
5 -8 56 -20 115 -11 59 -22 116 -24 127 -17 105 -122 429 -192 595 -75 176
-238 484 -265 501 -5 3 -9 9 -9 13 2 12 -176 267 -199 286 -4 3 -11 12 -16 21
-29 52 -256 295 -380 407 -100 91 -106 96 -219 184 -236 183 -521 351 -765
453 -36 15 -78 33 -95 41 -90 41 -465 152 -575 170 -14 2 -45 8 -70 14 -25 5
-67 12 -95 16 -27 4 -57 9 -65 10 -16 3 -86 12 -160 20 -48 6 -557 14 -562 9z"/>
<path d="M4958 8635 c-2 -2 -30 -5 -63 -8 -33 -3 -67 -8 -75 -11 -8 -2 -33 -7
-55 -10 -36 -5 -69 -12 -100 -20 -82 -22 -109 -30 -160 -48 -94 -32 -210 -81
-213 -90 -2 -4 -10 -8 -18 -8 -14 0 -35 -11 -134 -70 -135 -80 -236 -158 -360
-280 -91 -89 -230 -249 -230 -265 0 -4 -12 -24 -27 -44 -16 -20 -33 -45 -39
-56 -26 -48 -39 -70 -44 -75 -6 -6 -84 -162 -85 -170 -1 -5 -42 -115 -52 -140
-7 -18 -5 -11 -26 -80 -9 -30 -18 -67 -21 -82 -3 -15 -7 -32 -10 -37 -4 -5 -9
-31 -12 -58 -10 -75 -12 -88 -14 -88 -4 0 -7 -38 -14 -135 -3 -47 -6 -87 -7
-90 -1 -3 -1 -9 1 -15 1 -5 3 -36 5 -68 8 -106 80 -208 180 -257 40 -19 66
-23 135 -24 101 0 158 23 225 89 71 72 89 125 100 305 4 75 12 141 20 170 2 8
7 29 10 47 3 17 19 69 35 115 17 46 31 88 33 93 1 6 4 12 7 15 3 3 14 25 25
50 46 104 161 258 275 368 50 47 201 158 240 175 14 7 27 14 30 17 5 6 148 71
165 75 6 1 17 5 25 8 12 5 70 22 110 32 3 1 25 5 50 9 25 5 54 10 65 12 11 2
58 6 105 9 135 8 168 14 217 37 160 75 223 263 147 435 -21 47 -92 115 -149
143 -44 21 -66 24 -172 25 -68 1 -124 1 -125 0z"/>
<path d="M3541 1919 c-18 -7 -22 -15 -19 -34 3 -14 1 -25 -3 -25 -5 0 -5 -10
0 -22 5 -13 5 -33 0 -45 -4 -12 -4 -25 1 -28 5 -3 5 -18 0 -35 -5 -17 -6 -30
-2 -30 9 0 8 -143 -1 -157 -4 -7 -4 -14 1 -17 9 -5 9 -47 -1 -63 -4 -7 -4 -14
1 -17 9 -6 8 -59 -3 -75 -3 -6 -2 -11 2 -11 10 0 9 -53 -2 -69 -3 -6 -2 -11 2
-11 10 0 9 -53 -2 -69 -3 -6 -2 -11 2 -11 5 0 8 -15 6 -32 -5 -40 -5 -43 -1
-90 2 -21 0 -38 -5 -38 -4 0 -3 -9 3 -19 5 -11 10 -27 10 -35 0 -18 38 -104
55 -123 24 -28 51 -69 62 -93 4 -8 15 -24 25 -34 10 -11 18 -23 18 -28 0 -4 7
-16 15 -25 8 -10 57 -83 109 -163 52 -80 99 -149 103 -155 5 -5 20 -28 33 -50
13 -22 29 -45 35 -51 5 -6 19 -27 30 -47 11 -20 23 -37 27 -37 5 0 8 -6 8 -13
0 -22 89 -106 143 -135 l52 -27 870 0 c848 0 871 1 917 20 27 11 48 23 48 28
0 4 5 7 10 7 6 0 23 13 38 28 35 36 85 102 77 102 -3 0 -1 6 5 12 30 37 90
124 89 132 0 5 3 12 8 15 13 10 53 69 53 80 0 5 4 11 8 13 10 4 66 87 75 111
4 9 11 17 17 17 6 0 8 5 5 10 -3 6 -2 10 2 10 5 0 17 16 27 35 11 19 23 35 28
35 4 0 8 4 8 9 0 5 35 63 78 128 93 140 103 162 109 245 5 79 5 76 1 121 -3
21 -1 40 4 43 5 3 5 11 1 17 -4 6 -6 38 -5 72 3 79 3 75 0 118 -2 20 0 37 4
37 4 0 4 10 -1 23 -5 12 -5 32 0 45 5 12 5 22 1 22 -9 0 -8 53 2 68 3 6 2 13
-3 16 -5 3 -6 21 -2 38 4 18 4 48 0 66 -3 18 -3 35 2 38 4 2 4 15 0 27 -5 13
-5 30 -1 38 5 8 5 21 1 28 -5 7 -6 22 -4 32 6 23 -32 40 -63 28 -12 -4 -25 -5
-28 -1 -8 8 -103 5 -116 -3 -6 -3 -10 -3 -10 2 0 6 -161 9 -180 2 -3 -1 -9 0
-15 1 -13 3 -107 3 -120 0 -5 -1 -13 -1 -17 0 -5 1 -24 2 -43 2 -19 0 -38 -1
-42 -2 -5 -1 -12 -1 -18 0 -13 3 -107 3 -120 0 -5 -1 -13 -1 -17 0 -5 1 -24 2
-43 2 -19 0 -38 -1 -42 -2 -5 -1 -12 -1 -18 0 -5 1 -34 2 -62 1 -76 -2 -74 -2
-121 1 -23 2 -42 -1 -42 -5 0 -5 -5 -5 -10 -2 -6 4 -36 6 -68 6 -88 -2 -116
-1 -120 4 -2 2 -14 0 -27 -5 -13 -5 -26 -6 -29 -2 -8 8 -103 5 -116 -3 -6 -3
-10 -3 -10 2 0 4 -21 7 -47 5 -27 -2 -52 -3 -58 -3 -19 1 -120 1 -154 1 -19 0
-36 2 -38 4 -3 3 -15 1 -28 -4 -13 -5 -26 -6 -29 -3 -5 6 -197 8 -221 3 -5 -1
-13 -1 -17 0 -5 1 -37 2 -73 2 -36 0 -68 -1 -72 -2 -5 -1 -12 -1 -18 0 -13 3
-107 3 -120 0 -5 -1 -13 -1 -17 0 -5 1 -24 2 -43 2 -19 0 -38 -1 -42 -2 -5 -1
-12 -1 -18 0 -5 1 -32 2 -60 2 -27 0 -54 -1 -60 -2 -5 -1 -13 -1 -17 0 -5 1
-24 2 -43 2 -19 0 -38 -1 -42 -2 -5 -1 -12 -1 -18 0 -13 3 -197 3 -210 0 -5
-1 -12 -1 -15 0 -14 5 -70 4 -70 -1 0 -4 -16 -3 -35 1 -19 4 -37 4 -40 -1 -3
-4 -16 -4 -28 0 -12 5 -33 4 -46 0z"/>
</g>
</svg>
